Coordinates
version=1
nRows=32
nColumns=12
inDegrees=yes

Units are S.I. units (second, meters, Newtons, ...)
Angles are in degrees

endheader
time	SC_y	SC_z	SC_x	AC_y	AC_z	AC_x	GH_y	GH_z	GH_yy	EL_x	PS_y
       0.0              -13.57          15.78          61.43          50.29         -17.34          17.48         -124.7          45.82          -28.9          24.43          126.3
    0.0486              -13.58          15.78          61.42           50.3         -17.34          17.48         -124.6          45.82          -28.9          24.44          126.3
    0.0972              -13.58          15.78          61.42           50.3         -17.34          17.48         -124.6          45.82         -28.91          24.44          126.3
    0.1458              -13.58          15.78          61.41           50.3         -17.34          17.48         -124.6          45.82         -28.91          24.44          126.3
    0.1944              -13.59          15.79           61.4          50.31         -17.34          17.48         -124.6          45.82         -28.92          24.45          126.2
     0.243              -13.59          15.79           61.4          50.31         -17.34          17.47         -124.6          45.82         -28.92          24.45          126.2
    0.2916              -13.59          15.79          61.39          50.31         -17.34          17.47         -124.6          45.83         -28.93          24.46          126.2
    0.3402               -13.6          15.79          61.38          50.32         -17.34          17.47         -124.6          45.83         -28.94          24.46          126.2
    0.3888               -13.6           15.8          61.37          50.32         -17.34          17.47         -124.6          45.83         -28.94          24.47          126.2
    0.4374              -13.61           15.8          61.37          50.33         -17.34          17.47         -124.6          45.83         -28.95          24.47          126.2
     0.486              -13.61           15.8          61.36          50.33         -17.34          17.47         -124.5          45.83         -28.96          24.48          126.2
    0.5346              -13.62          15.81          61.35          50.34         -17.34          17.47         -124.5          45.84         -28.97          24.49          126.1
    0.5832              -13.62          15.81          61.33          50.34         -17.34          17.46         -124.5          45.84         -28.98          24.49          126.1
    0.6318              -13.63          15.81          61.32          50.35         -17.34          17.46         -124.5          45.84         -28.99           24.5          126.1
    0.6804              -13.64          15.82          61.31          50.36         -17.34          17.46         -124.5          45.85          -29.0          24.51          126.1
     0.729              -13.64          15.82          61.29          50.37         -17.34          17.46         -124.4          45.85         -29.01          24.52          126.1
    0.7776              -13.65          15.83          61.28          50.37         -17.34          17.45         -124.4          45.86         -29.02          24.53          126.0
    0.8262              -13.66          15.83          61.26          50.38         -17.34          17.45         -124.4          45.86         -29.04          24.54          126.0
    0.8748              -13.67          15.84          61.24          50.39         -17.34          17.45         -124.4          45.87         -29.05          24.55          126.0
    0.9234              -13.68          15.85          61.22           50.4         -17.34          17.45         -124.3          45.87         -29.07          24.56          125.9
     0.972              -13.69          15.85           61.2          50.42         -17.34          17.44         -124.3          45.88         -29.09          24.58          125.9
     1.021               -13.7          15.86          61.18          50.43         -17.34          17.44         -124.3          45.88         -29.11          24.59          125.9
     1.069              -13.72          15.87          61.15          50.44         -17.34          17.43         -124.2          45.89         -29.14          24.61          125.8
     1.118              -13.73          15.88          61.12          50.46         -17.33          17.43         -124.2           45.9         -29.16          24.63          125.8
     1.166              -13.75          15.89          61.09          50.48         -17.33          17.42         -124.1          45.91         -29.19          24.65          125.7
     1.215              -13.77          15.91          61.05           50.5         -17.33          17.42         -124.0          45.92         -29.22          24.67          125.7
     1.264              -13.79          15.92          61.01          50.52         -17.33          17.41         -124.0          45.93         -29.26           24.7          125.6
     1.312              -13.81          15.94          60.96          50.54         -17.33           17.4         -123.9          45.94          -29.3          24.73          125.5
     1.361              -13.84          15.95          60.91          50.57         -17.33          17.39         -123.8          45.96         -29.34          24.76          125.4
     1.409              -13.87          15.97          60.85           50.6         -17.33          17.38         -123.7          45.97         -29.39           24.8          125.3
     1.458              -13.91           16.0          60.78          50.64         -17.33          17.37         -123.6          45.99         -29.45          24.84          125.2
     1.507              -13.95          16.02           60.7          50.68         -17.33          17.36         -123.5          46.01         -29.52          24.89          125.1
